PathFileType	3	(X/Y/Z)	D:\minhoCalibration\240510\subject2_KPNP\preferred\preferred11.trc
DataRate	CameraRate	NumFrames	NumMarkers	Units	OrigDataRate	OrigDataStartFrame	OrigNumFrames
200.0	200.0	33	10	mm	200.0	368	182	
Frame#	Time	Left_Ankle_Outer1			Left_Ankle_Inner1			Left_Knee_Outer1			Left_Knee_Inner1			Left_Wrist1			Right_Wrist1			Right_Knee_Inner1			Right_Knee_Outer1			Right_Ankle_Inner1			Right_Ankle_Outer1			
		X1	Y1	Z1	X2	Y2	Z2	X3	Y3	Z3	X4	Y4	Z4	X5	Y5	Z5	X6	Y6	Z6	X7	Y7	Z7	X8	Y8	Z8	X9	Y9	Z9	X10	Y10	Z10	
368	1.83	-626.59906	90.321823	-645.87256	-636.00934	94.287888	-592.94922	-471.24332	511.37769	-675.48352	-507.3858	497.76096	-588.34796	-501.48578	977.87549	-752.62677	-706.26959	1073.7072	-491.32672	-549.97473	650.2135	-229.0027	-630.76074	696.49725	-199.1825	-726.19043	284.47293	-346.06232	-811.75403	317.1702	-303.60724
369	1.835	-626.58478	90.123741	-645.84552	-636.0567	94.081131	-592.94086	-471.22302	511.43091	-674.50946	-507.48349	497.56644	-587.44299	-500.45239	978.40015	-751.13287	-708.82373	1071.6793	-492.16586	-558.33563	642.28418	-233.84509	-638.97021	689.24695	-204.45526	-732.99756	279.2233	-359.41409	-819.55096	312.16074	-318.52936
370	1.84	-626.62817	89.885399	-645.81873	-634.92108	94.919525	-590.2417	-471.28662	511.40439	-673.64056	-508.11975	497.49283	-586.98334	-499.56931	978.93427	-749.69476	-711.37195	1069.7054	-492.8815	-566.61346	634.50696	-238.95766	-647.29291	679.45319	-214.80339	-739.62756	274.41568	-372.69562	-827.79449	305.59833	-337.07394
371	1.845	-626.75208	89.582802	-645.68536	-635.44775	93.879982	-591.36133	-471.60577	511.34622	-672.75848	-508.82339	497.42825	-586.49036	-498.58798	979.40149	-748.25409	-714.31006	1067.7284	-493.88974	-574.86096	626.8186	-244.42308	-655.15051	674.99982	-215.47266	-746.62164	269.53085	-385.78354	-834.10901	301.91525	-348.55865
372	1.85	-626.8988	89.320076	-645.5163	-635.64594	93.463623	-591.31757	-472.15808	511.23999	-671.84131	-509.78702	497.36151	-585.901	-497.86462	979.83813	-746.56256	-717.15826	1065.6785	-494.87601	-583.0838	619.39001	-250.26056	-662.42603	665.88727	-225.99724	-754.07178	264.94238	-398.02313	-842.7254	295.76648	-366.04816
373	1.855	-627.02295	88.953735	-645.3761	-635.8689	93.087662	-591.05859	-472.87201	510.99115	-671.00275	-510.80179	497.2627	-585.30212	-496.88419	980.07593	-745.46997	-719.47314	1063.5266	-495.36011	-591.25842	612.19232	-256.30402	-670.70776	660.63678	-227.14687	-759.78162	260.49933	-411.0708	-849.53748	292.39062	-377.27539
374	1.86	-627.27673	88.731438	-645.40485	-636.9588	91.695724	-592.01288	-473.55856	510.87183	-670.18579	-512.72156	497.14886	-585.29547	-496.01376	980.43976	-743.88196	-721.89423	1061.2568	-495.9191	-599.28314	605.11493	-262.62842	-678.68872	651.97876	-238.01543	-766.94122	256.05908	-422.75534	-856.47614	288.10455	-391.90414
375	1.865	-627.53156	88.388084	-645.20898	-637.16833	90.562271	-593.55408	-474.53519	510.64743	-669.35968	-513.46838	497.00006	-584.22308	-495.32129	980.63464	-743.02917	-724.93024	1058.9722	-496.95331	-607.31921	598.25677	-269.20206	-686.48383	647.16913	-240.14995	-773.91522	251.74297	-434.38104	-862.11572	285.51175	-403.96982
376	1.87	-627.74622	87.976807	-645.08661	-636.3988	92.939613	-587.75464	-475.51959	510.48215	-668.53986	-515.11334	496.84335	-583.71191	-495.15997	981.36774	-741.70526	-727.6217	1056.5844	-497.88785	-615.30548	591.6535	-276.02008	-694.21008	640.03949	-247.57346	-779.72449	247.435	-446.28958	-868.78973	280.91803	-419.09067
377	1.875	-628.04437	87.57048	-645.00189	-636.60345	92.053108	-588.48724	-476.69339	510.29282	-667.67096	-516.76837	496.50021	-583.01581	-494.68588	981.86566	-740.37244	-730.32532	1054.1838	-498.85239	-623.57971	585.07562	-282.89227	-702.47913	634.5343	-251.77223	-780.25476	245.8282	-458.87256	-877.95947	276.3309	-435.35101
378	1.88	-628.27185	87.115883	-644.99219	-636.90967	91.559433	-588.30743	-477.83368	510.18698	-666.82452	-519.27228	496.30115	-583.04492	-494.3302	982.20953	-738.73969	-733.03986	1051.8097	-499.79001	-631.60297	578.84625	-289.96545	-709.99561	627.67157	-261.18311	-790.59735	238.8963	-471.0502	-883.91248	272.46896	-450.11322
379	1.885	-628.54669	86.70311	-644.97815	-636.88983	90.145454	-590.64868	-479.1272	509.93228	-666.07129	-521.74951	495.81903	-582.5072	-494.28	982.56097	-737.42041	-735.76099	1049.5177	-500.75601	-639.66516	572.9209	-297.00513	-718.2749	622.25531	-267.3931	-792.8269	237.16756	-481.57504	-890.63611	268.38461	-463.71762
380	1.89	-628.75995	86.219795	-644.88818	-637.97577	88.370735	-592.32153	-480.4856	509.72855	-665.24854	-523.67017	495.61087	-582.11084	-492.77258	983.37085	-733.89709	-738.57513	1047.3553	-501.87265	-647.7157	567.33179	-304.2854	-726.41364	616.60358	-274.94867	-802.49036	230.86238	-492.99966	-896.60913	265.31918	-474.53616
381	1.895	-628.99908	85.56205	-644.45056	-637.87897	90.101807	-587.86902	-481.80283	509.65692	-664.53979	-525.31744	495.57932	-581.13568	-492.58765	983.71625	-732.20166	-741.89148	1045.4935	-502.97659	-655.81635	562.14465	-311.45865	-734.55139	609.65363	-286.78244	-808.43127	226.68661	-503.67175	-901.31305	262.33191	-487.11154
382	1.9	-629.27289	85.122955	-644.30701	-638.14355	89.720314	-587.67474	-483.28137	509.49503	-663.76019	-527.67029	495.35434	-581.27783	-492.5892	984.19385	-730.58704	-744.67517	1043.5562	-503.86011	-663.57605	557.27899	-318.25726	-743.16962	605.47028	-291.7616	-815.41498	222.07034	-514.05292	-907.51611	257.91473	-501.14203
383	1.905	-629.41809	84.809959	-644.22357	-638.315	89.501869	-587.23846	-484.39169	509.51511	-663.23181	-529.65717	495.26855	-580.88196	-492.7796	984.77539	-728.70728	-747.42889	1041.7192	-504.73117	-672.12109	552.58728	-325.96216	-751.6618	600.35352	-300.12003	-819.89514	218.11568	-524.44543	-913.88318	254.68292	-513.45441
384	1.91	-629.73584	84.725082	-644.28381	-638.47418	89.127373	-587.38385	-485.71588	509.62598	-662.5675	-531.60962	495.19104	-580.44104	-493.14178	985.27393	-727.39557	-750.24451	1039.9363	-505.71848	-680.16656	548.18762	-333.42368	-760.16418	595.474	-308.86893	-825.71136	213.80536	-534.64545	-919.49597	251.02293	-524.94928
385	1.915	-629.97772	84.291954	-643.95416	-638.89185	87.929115	-588.96112	-486.99127	509.71796	-662.01166	-533.1637	495.2132	-579.5415	-493.21622	985.80389	-725.55719	-753.11945	1038.1233	-506.7489	-688.35364	544.07471	-340.94696	-769.04749	589.49658	-321.08417	-831.41016	209.46754	-544.67749	-925.31482	247.01532	-536.89911
386	1.92	-630.25214	83.981689	-643.78442	-638.98889	88.403397	-587.41675	-488.20776	509.86081	-661.33569	-535.24152	495.29074	-579.53259	-493.59116	986.37274	-724.02631	-756.05212	1036.3422	-507.80786	-696.34375	540.04419	-348.58591	-776.79272	585.54187	-329.76935	-837.02222	205.24803	-554.38727	-930.66748	242.68398	-548.69885
387	1.925	-630.47864	83.731628	-643.64337	-639.229	88.06913	-587.33807	-489.58786	509.90234	-660.66132	-536.9585	495.38202	-579.1015	-494.00543	986.96344	-722.30682	-759.04572	1034.5331	-508.9873	-704.40051	536.31195	-356.34207	-785.55444	582.87024	-333.16296	-842.42822	200.49754	-564.38776	-935.85834	239.17821	-559.51666
388	1.93	-630.67224	83.61953	-643.56531	-639.55225	87.971878	-586.83716	-490.61945	510.16141	-659.97302	-538.58917	495.46481	-578.62891	-494.39154	987.65338	-720.59644	-762.12787	1032.7146	-510.24054	-712.13788	532.74329	-363.63678	-793.78693	577.94366	-345.74438	-847.88696	196.35782	-573.35596	-940.68921	235.38884	-570.54773
389	1.935	-630.84515	83.396248	-643.4577	-639.85938	87.005615	-588.27405	-491.73151	510.32913	-659.23383	-540.18256	495.57126	-578.1283	-494.84644	988.4093	-718.85962	-765.24323	1030.8961	-511.56561	-719.42908	528.98883	-371.90576	-802.9989	572.13684	-359.19302	-853.16565	192.17537	-582.47083	-946.4823	231.36615	-580.40729
390	1.94	-631.03455	83.256439	-643.37231	-640.6889	85.985992	-589.09863	-492.74338	510.46658	-658.38837	-541.75024	495.69037	-577.48444	-495.47839	989.14532	-717.00873	-768.39911	1029.0435	-512.85846	-727.48169	525.83832	-380.25192	-809.97845	570.4483	-364.29596	-858.3631	187.99826	-591.3009	-951.83307	227.03265	-590.69415
391	1.945	-631.10059	83.215004	-643.31317	-640.21625	86.672943	-588.0188	-493.65872	510.55383	-657.57227	-543.00391	495.77612	-576.604	-496.11603	989.97034	-715.16382	-771.88147	1027.2299	-514.32751	-734.60004	522.52234	-387.82947	-818.03424	564.94037	-379.30447	-863.27429	183.81375	-599.87921	-956.50836	223.23549	-600.27533
392	1.95	-631.22107	83.140503	-643.24969	-640.40735	87.195107	-586.4812	-494.41699	510.74405	-656.71307	-544.51178	495.85373	-576.1311	-496.8703	990.69739	-713.18774	-774.96906	1025.4219	-515.66925	-741.42621	519.25061	-396.21957	-824.4798	563.06976	-385.81277	-868.16254	179.74193	-608.28778	-961.1687	219.13271	-609.5954
393	1.955	-631.35809	83.163467	-643.23956	-640.52155	87.116119	-586.63165	-494.96567	510.92218	-655.94952	-545.87701	495.95264	-575.68787	-497.69165	991.43762	-711.14612	-778.51691	1023.5165	-517.1449	-748.38898	516.67712	-404.51013	-831.94537	560.33905	-393.6579	-872.7627	175.63077	-616.33746	-965.55341	215.03743	-618.79413
394	1.96	-631.38715	83.137062	-643.28979	-640.58679	86.596649	-587.85852	-495.54355	511.06955	-655.05444	-547.20856	496.02042	-575.32568	-498.76559	992.25287	-709.06274	-781.99628	1021.7543	-518.74231	-755.03845	513.95905	-413.04709	-837.80554	556.13342	-409.9136	-877.19763	171.65828	-624.08643	-970.11829	210.8567	-627.30402
395	1.965	-631.35724	83.193535	-643.38739	-640.54486	86.531693	-588.30725	-495.86639	511.24274	-654.27643	-548.37164	496.06848	-574.93396	-499.7547	992.96948	-707.02167	-785.65558	1019.9845	-520.48639	-761.13275	511.62277	-421.57745	-844.88098	554.5481	-413.75858	-881.44	167.64548	-631.65149	-974.28113	206.69662	-635.68738
396	1.97	-631.37988	83.160339	-643.47992	-640.85822	87.197617	-586.53986	-496.10391	511.40088	-653.48724	-549.33789	496.08905	-574.47839	-500.98901	993.745	-704.83856	-789.44391	1018.3011	-522.28674	-767.53198	509.50015	-430.0307	-850.53754	551.90063	-425.65393	-885.5033	163.64644	-638.92511	-978.31805	202.43173	-644.00098
397	1.975	-631.38428	83.219536	-643.6308	-640.79077	86.722649	-588.00299	-496.27911	511.5477	-652.62793	-550.15216	496.06616	-573.94385	-502.07089	994.59692	-702.80664	-793.38147	1016.5974	-524.07953	-773.17371	507.27087	-438.86255	-856.50751	549.31427	-436.9827	-888.2901	160.21887	-646.62732	-981.9635	198.29263	-651.81903
398	1.98	-631.22089	83.283905	-643.76569	-640.90833	87.147118	-587.13727	-496.336	511.74271	-651.76123	-550.83069	496.08044	-573.43195	-503.44724	995.33734	-700.61591	-797.42731	1014.9206	-525.97345	-778.35889	505.08218	-447.66611	-862.22174	547.13153	-444.87204	-892.4679	156.44078	-653.08893	-985.60809	194.0943	-659.47797
399	1.985	-631.18097	83.304558	-643.92212	-640.79694	86.789101	-588.35626	-496.39478	511.88516	-650.81079	-551.38971	496.15289	-572.83356	-505.22424	995.93866	-698.39886	-801.64319	1013.2496	-527.95306	-784.2392	503.32236	-456.35968	-867.15833	544.65112	-455.70746	-895.26862	153.05544	-659.97589	-988.52313	189.79228	-666.49866
400	1.99	-631.02771	83.38327	-644.08649	-640.92096	87.359436	-587.0813	-496.32938	512.02728	-649.78314	-551.91278	496.19888	-572.19598	-506.98782	996.56708	-696.13922	-805.89459	1011.5619	-530.03156	-789.34698	501.21939	-464.84842	-872.12146	542.4538	-465.5451	-898.59576	149.55681	-666.03516	-991.63934	185.31766	-673.18854
